<svg xmlns="http://www.w3.org/2000/svg" width="800" height="400" viewBox="0 0 800 400">
<rect width="100%" height="100%" fill="#ffffff"/>
<polyline points="0.00,400.00 27.59,382.07 55.17,365.52 82.76,362.76 110.34,340.69 137.93,331.03 165.52,313.10 193.10,297.93 220.69,289.66 248.28,280.00 275.86,257.93 303.45,248.28 331.03,231.72 358.62,216.55 386.21,206.90 413.79,188.97 441.38,179.31 468.97,161.38 496.55,146.21 524.14,137.93 551.72,121.38 579.31,106.21 606.90,96.55 634.48,78.62 662.07,66.21 689.66,55.17 717.24,37.24 744.83,27.59 772.41,11.03 800.00,0.00" fill="none" stroke="#1f77b4" stroke-width="1.5"/>
</svg>
